<svg width="70" height="37" viewBox="0 0 70 37" fill="none" xmlns="http://www.w3.org/2000/svg">
<rect x="11" y="5" width="48" height="2" rx="1" fill="#53B794"/>
<rect x="11" y="31" width="48" height="2" rx="1" fill="#53B794"/>
<path fill-rule="evenodd" clip-rule="evenodd" d="M6 0C2.68629 0 0 2.68629 0 6V31C0 34.3137 2.68629 37 6 37H64C67.3137 37 70 34.3137 70 31V6C70 2.68629 67.3137 0 64 0H6ZM2.16049 29.8488C2.16049 32.6103 4.39907 34.8488 7.16049 34.8488H62.8395C65.6009 34.8488 67.8395 32.6103 67.8395 29.8488V7.15116C67.8395 4.38974 65.6009 2.15116 62.8395 2.15116H7.1605C4.39907 2.15116 2.16049 4.38974 2.16049 7.15116V29.8488Z" fill="#53B794"/>
<rect x="63" y="27" width="17" height="2" rx="1" transform="rotate(-90 63 27)" fill="#53B794"/>
<path fill-rule="evenodd" clip-rule="evenodd" d="M34.6337 4.73254C26.9114 4.73254 20.6512 10.9928 20.6512 18.7151C20.6512 26.4375 26.9114 32.6977 34.6337 32.6977C42.3561 32.6977 48.6163 26.4375 48.6163 18.7151C48.6163 10.9928 42.3561 4.73254 34.6337 4.73254ZM34.8489 6.88371C28.4334 6.88371 23.2326 12.0845 23.2326 18.5C23.2326 24.9155 28.4334 30.1163 34.8489 30.1163C41.2643 30.1163 46.4651 24.9155 46.4651 18.5C46.4651 12.0845 41.2643 6.88371 34.8489 6.88371Z" fill="#53B794"/>
</svg>
