<svg width="72" height="80" viewBox="0 0 72 80" fill="none" xmlns="http://www.w3.org/2000/svg">
<rect x="8" y="20" width="20" height="2" rx="1" fill="#53B794"/>
<rect x="50" y="42" width="12" height="2" rx="1" transform="rotate(-90 50 42)" fill="#53B794"/>
<path d="M31 2V13C31 17.4183 34.5817 21 39 21H51V18.7381H38.2727C35.5113 18.7381 33.2727 16.4995 33.2727 13.7381V2H31Z" fill="#53B794"/>
<rect x="8" y="28" width="33" height="2" rx="1" fill="#53B794"/>
<rect x="8" y="36" width="27" height="2" rx="1" fill="#53B794"/>
<rect x="8" y="44" width="20" height="2" rx="1" fill="#53B794"/>
<path d="M1.09375 15C0.489689 15 0 15.4897 0 16.0938L0 56.3846C0 61.1428 3.85724 65 8.61539 65H12.9035C13.5091 65 14 64.5091 14 63.9035C14 63.2979 13.5091 62.807 12.9035 62.807H8.375C4.95774 62.807 2.1875 60.0368 2.1875 56.6195L2.1875 16.0938C2.1875 15.4897 1.69781 15 1.09375 15Z" fill="#53B794"/>
<path d="M17 64C17 63.4477 17.4477 63 18 63H37V65H18C17.4477 65 17 64.5523 17 64Z" fill="#53B794"/>
<path d="M9.48835 2.20472H31.6426L49.7872 20.2835V26.8936C49.7872 27.5047 50.2826 28 50.8936 28C51.5047 28 52 27.5047 52 26.8936V21.8933C52 20.2982 51.3649 18.7687 50.2349 17.6429L34.2837 1.74964C33.1591 0.629146 31.6363 0 30.0488 0H9.55381C4.27738 0 0 4.27738 0 9.55381V10.3582C0 10.9692 0.495345 11.4646 1.10638 11.4646C1.71742 11.4646 2.21277 10.9692 2.21277 10.3582V9.48032C2.21277 5.46212 5.47015 2.20472 9.48835 2.20472Z" fill="#53B794"/>
<path fill-rule="evenodd" clip-rule="evenodd" d="M38.2963 66.2915C39.7586 67.7538 42.1295 67.7538 43.5919 66.2915L44.6822 65.2012C45.5424 64.341 45.5424 62.9463 44.6822 62.0861L46.3955 60.3728L53.5384 69.3791C55.4583 71.7998 59.0589 72.0069 61.2437 69.8222C63.4469 67.6189 63.2147 63.9818 60.7492 62.0766L51.6911 55.0772L53.7159 53.0524C54.5761 53.9126 55.9707 53.9126 56.8309 53.0524L57.9212 51.9621C59.3836 50.4998 59.3836 48.1289 57.9212 46.6665L48.2645 37.0098C46.8021 35.5475 44.4312 35.5475 42.9689 37.0098L41.8786 38.1001C41.0184 38.9603 41.0184 40.3549 41.8786 41.2151L32.8449 50.2489C31.9847 49.3886 30.59 49.3887 29.7298 50.2489L28.6395 51.3391C27.1772 52.8015 27.1772 55.1724 28.6395 56.6347L38.2963 66.2915ZM50.1336 56.6347L47.953 58.8153L55.3491 68.1514C56.4702 69.5665 58.5742 69.688 59.8508 68.4115C61.1395 67.1227 61.0013 64.9946 59.5567 63.8833L50.1336 56.6347ZM42.0343 62.5534C42.6365 63.1555 42.6365 64.1318 42.0343 64.7339C41.4322 65.3361 40.4559 65.3361 39.8538 64.7339L30.1971 55.0772C29.5949 54.4751 29.5949 53.4988 30.1971 52.8967C30.7992 52.2945 31.7755 52.2945 32.3776 52.8967L42.0343 62.5534ZM44.5264 38.5673C45.1285 37.9652 46.1048 37.9652 46.707 38.5673L56.3637 48.2241C56.9658 48.8262 56.9658 49.8025 56.3637 50.4046C55.7615 51.0067 54.7853 51.0067 54.1831 50.4046L50.7566 46.978C50.3264 46.5479 49.6291 46.5479 49.199 46.978C48.7689 47.4081 48.7689 48.1055 49.199 48.5356L52.1583 51.4949L43.1246 60.5286L34.4024 51.8064L43.4361 42.7727L45.4609 44.7975C45.891 45.2276 46.5884 45.2276 47.0185 44.7975C47.4486 44.3674 47.4486 43.67 47.0185 43.2399L44.5264 40.7479C43.9243 40.1457 43.9243 39.1695 44.5264 38.5673Z" fill="#53B794"/>
</svg>
