<svg width="72" height="72" viewBox="0 0 72 72" fill="none" xmlns="http://www.w3.org/2000/svg">
<path d="M1 36C1 16.67 16.67 1 36 1C55.33 1 71 16.67 71 36C71 55.33 55.33 71 36 71C16.67 71 1 55.33 1 36Z" stroke="#53B794" stroke-width="2" stroke-linejoin="round"/>
<path d="M29.2171 16.7364C29.2171 12.8405 32.3754 9.68217 36.2713 9.68217C40.1673 9.68217 43.3256 12.8405 43.3256 16.7364C43.3256 20.6324 40.1673 23.7907 36.2713 23.7907C32.3754 23.7907 29.2171 20.6324 29.2171 16.7364Z" stroke="#53B794" stroke-width="2" stroke-linejoin="round"/>
<path d="M28.4031 28.4031H41.969V48.4806H47.6667V58.5194H27.3178V48.4806H33.2868V34.6434H28.4031V28.4031Z" stroke="#53B794" stroke-width="2" stroke-linejoin="round"/>
</svg>
